<svg width="221" height="40" viewBox="0 0 221 40" fill="none" xmlns="http://www.w3.org/2000/svg">
<path d="M220.417 11.3186L211.736 19.9985C211.736 13.5745 215.228 7.9638 220.417 4.96036V11.3186Z" fill="#6E58A5"/>
<path d="M220.417 35.0396C215.228 32.0392 211.736 26.427 211.736 19.9985L220.417 28.6799V35.0396Z" fill="#6E58A5"/>
<path d="M180.416 28.6814L189.097 20.0015C189.097 26.4255 185.605 32.0362 180.416 35.0396V28.6814Z" fill="#6E58A5"/>
<path d="M180.416 4.96036C185.605 7.96081 189.097 13.573 189.097 20.0015L180.416 11.3201V4.96036Z" fill="#6E58A5"/>
<path d="M209.099 39.9999L200.419 31.3185C206.843 31.3185 212.454 34.8108 215.457 39.9999H209.099Z" fill="#6E58A5"/>
<path d="M185.377 40C188.378 34.8109 193.99 31.3186 200.419 31.3186L191.737 40H185.377Z" fill="#6E58A5"/>
<path d="M191.734 -3.05176e-05L200.414 8.68139C193.99 8.68139 188.379 5.18909 185.376 -3.05176e-05H191.734Z" fill="#6E58A5"/>
<path d="M215.455 -6.10352e-05C212.455 5.18906 206.843 8.68136 200.414 8.68136L209.095 -6.10352e-05H215.455Z" fill="#6E58A5"/>
<path d="M207.02 20.0015C207.02 17.9653 207.295 15.9964 207.811 14.1232C208.022 13.3443 208.278 12.5863 208.572 11.8433C207.832 12.1378 207.071 12.3934 206.295 12.6072C204.422 13.1215 202.453 13.3966 200.417 13.3966C198.381 13.3966 196.412 13.1215 194.539 12.6057C193.76 12.3949 193.002 12.1393 192.259 11.8448C192.553 12.5863 192.809 13.3458 193.023 14.1247C193.537 15.9949 193.812 17.9668 193.812 20.0015C193.812 22.0361 193.537 24.008 193.021 25.8798C192.81 26.6587 192.555 27.4166 192.26 28.1596C193.002 27.8651 193.761 27.6095 194.54 27.3957C196.41 26.8814 198.382 26.6063 200.417 26.6063C202.452 26.6063 204.424 26.8814 206.295 27.3972C207.074 27.608 207.832 27.8636 208.575 28.1581C208.281 27.4181 208.025 26.6572 207.811 25.8813C207.297 24.008 207.022 22.0391 207.022 20.003L207.02 20.0015ZM200.415 24.7167C198.592 24.7167 196.816 24.9185 195.111 25.3057C195.498 23.5984 195.7 21.8224 195.7 19.9985C195.7 18.1746 195.498 16.3985 195.111 14.6942C196.819 15.0814 198.595 15.2833 200.418 15.2833C202.242 15.2833 204.018 15.0814 205.723 14.6942C205.338 16.4015 205.134 18.1776 205.134 20.0015C205.134 21.8254 205.335 23.6014 205.723 25.3057C204.015 24.9215 202.239 24.7167 200.415 24.7167Z" fill="#6E58A5"/>
<path d="M3.60586 24.0977L0.00292969 33.3069H1.45158L2.26037 31.169H6.21014L7.01893 33.3069H8.50046L4.93042 24.0977H3.60586ZM5.76463 29.979H2.72232L4.25469 25.9664L5.76463 29.979Z" fill="#201F4F"/>
<path d="M11.9526 24.0977H10.5488V33.3069H16.0997V32.0585H11.9526V24.0977Z" fill="#201F4F"/>
<path d="M25.8378 28.1641L24.6374 27.9518C23.5535 27.7589 23.0915 27.3433 23.0915 26.5614C23.0915 25.6555 23.7882 25.1158 24.9543 25.1158C26.1204 25.1158 26.7004 25.5628 26.968 26.708L26.992 26.8126L28.3494 26.7887L28.3195 26.6332C27.9697 24.7974 26.8724 23.9048 24.9648 23.9048C23.0571 23.9048 21.7176 24.9723 21.7176 26.6257C21.7176 28.0206 22.5728 28.8832 24.2591 29.1896L25.4282 29.4079C26.6526 29.6366 27.0652 29.973 27.0652 30.7399C27.0652 31.6952 26.3073 32.2888 25.0859 32.2888C23.7792 32.2888 23.1199 31.8268 22.8075 30.6921L22.7806 30.5919L21.4097 30.6159L21.4366 30.7699C21.761 32.6072 22.945 33.4997 25.0545 33.4997C27.1639 33.4997 28.4361 32.3919 28.4361 30.6757C28.4361 29.2793 27.6094 28.481 25.8348 28.1626L25.8378 28.1641Z" fill="#201F4F"/>
<path d="M30.9448 33.3069H37.2985V32.0585H32.3486V29.2569H36.4569V28.046H32.3486V25.346H37.2985V24.0977H30.9448V33.3069Z" fill="#201F4F"/>
<path d="M44.0516 29.4154C45.6139 29.2883 46.5692 28.327 46.5692 26.844C46.5692 25.0724 45.4644 24.0977 43.4566 24.0977H39.7983V33.3069H41.2006V29.5768H41.9407C42.5088 29.5768 42.6583 29.6994 43.0081 30.1838L45.3343 33.3069H46.9833L44.4179 29.8714C44.2833 29.6875 44.1682 29.535 44.0501 29.4139L44.0516 29.4154ZM41.2021 25.3266H43.2518C44.6346 25.3266 45.1982 25.7661 45.1982 26.8425C45.1982 27.9189 44.5883 28.3853 43.2189 28.3853H41.2021V25.3266Z" fill="#201F4F"/>
<path d="M51.7958 24.0977L48.1929 33.3069H49.6415L50.4503 31.169H54.4001L55.2089 33.3069H56.6904L53.1204 24.0977H51.7958ZM53.9546 29.979H50.9123L52.4446 25.9664L53.9546 29.979Z" fill="#201F4F"/>
<path d="M60.42 29.9192C60.42 31.631 59.9789 32.2379 58.7366 32.2379C58.4107 32.2379 58.0639 32.1901 57.732 32.1004L57.569 32.057L57.5361 33.2979L57.6348 33.3263C58.016 33.4384 58.457 33.4982 58.9115 33.4982C60.8999 33.4982 61.8253 32.3426 61.8253 29.8594V24.0962H60.4215V29.9177L60.42 29.9192Z" fill="#201F4F"/>
<path d="M69.8642 24.0977H68.4604V33.3069H69.8642V24.0977Z" fill="#201F4F"/>
<path d="M76.6152 28.1641L75.4147 27.9518C74.3309 27.7589 73.8674 27.3433 73.8674 26.5614C73.8674 25.6555 74.5641 25.1158 75.7302 25.1158C76.8963 25.1158 77.4763 25.5628 77.7439 26.708L77.7678 26.8126L79.1253 26.7887L79.0954 26.6332C78.7456 24.7974 77.6482 23.9048 75.7406 23.9048C73.833 23.9048 72.4935 24.9723 72.4935 26.6257C72.4935 28.0206 73.3487 28.8832 75.035 29.1896L76.2041 29.4079C77.4285 29.6366 77.8411 29.973 77.8411 30.7399C77.8411 31.6952 77.0831 32.2888 75.8617 32.2888C74.5551 32.2888 73.8958 31.8268 73.5834 30.6921L73.5565 30.5919L72.1855 30.6159L72.2125 30.7699C72.5369 32.6072 73.7209 33.4997 75.8303 33.4997C77.9398 33.4997 79.212 32.3919 79.212 30.6757C79.212 29.2793 78.3853 28.481 76.6107 28.1626L76.6152 28.1641Z" fill="#201F4F"/>
<path d="M83.1274 24.0977H81.7236V33.3069H87.2745V32.0585H83.1274V24.0977Z" fill="#201F4F"/>
<path d="M91.8466 24.0977L88.2437 33.3069H89.6923L90.5011 31.169H94.4509L95.2596 33.3069H96.7412L93.1711 24.0977H91.8466ZM94.0039 29.979H90.9615L92.4939 25.9664L94.0039 29.979Z" fill="#201F4F"/>
<path d="M103.521 31.3903L100.274 24.0977H98.7891V33.3069H100.09V26.8889L102.891 33.3069H104.048L106.846 26.9038V33.3069H108.23V24.0977H106.724L103.521 31.3903Z" fill="#201F4F"/>
<path d="M112.793 24.0977H111.391V33.3069H112.793V24.0977Z" fill="#201F4F"/>
<path d="M122.086 30.127C121.645 31.6668 120.95 32.2394 119.517 32.2394C117.728 32.2394 116.743 30.9821 116.743 28.7008C116.743 26.4194 117.728 25.1681 119.517 25.1681C120.948 25.1681 121.64 25.7153 122.072 27.1849L122.101 27.282L123.511 27.2581L123.473 27.0981C122.971 24.9214 121.714 23.9063 119.516 23.9063C116.924 23.9063 115.312 25.7437 115.312 28.7008C115.312 31.6579 116.922 33.5012 119.516 33.5012C121.69 33.5012 122.953 32.4592 123.491 30.2212L123.53 30.0597L122.113 30.0283L122.084 30.127H122.086Z" fill="#201F4F"/>
<path d="M135.805 28.629C136.675 28.2149 137.068 27.5466 137.068 26.5046C137.068 24.9528 135.977 24.0992 133.995 24.0992H130.17V33.3083H134.022C136.097 33.3083 137.288 32.3829 137.288 30.7668C137.288 29.677 136.778 28.943 135.808 28.629H135.805ZM133.909 28.0968H131.546V25.3146H133.968C135.114 25.3146 135.696 25.7706 135.696 26.6706C135.696 27.6169 135.095 28.0968 133.909 28.0968ZM135.914 30.6831C135.914 31.6384 135.283 32.0839 133.929 32.0839H131.546V29.2748H133.929C135.339 29.2748 135.914 29.683 135.914 30.6831Z" fill="#201F4F"/>
<path d="M142.389 24.0977L138.786 33.3068H140.236L141.045 31.169H144.995L145.804 33.3068H147.285L143.715 24.0977H142.391H142.389ZM144.548 29.979H141.506L143.038 25.9664L144.548 29.979Z" fill="#201F4F"/>
<path d="M155.463 30.8655L150.561 24.0977H149.332V33.3068H150.633V26.539L155.535 33.3068H156.764V24.0977H155.463V30.8655Z" fill="#201F4F"/>
<path d="M162.613 28.5662L167.035 24.0977H165.319L161.328 28.1491V24.0977H159.925V33.3068H161.328V29.076L165.375 33.3068H167.143L162.613 28.5662Z" fill="#201F4F"/>
<path d="M65.0216 16.4598C64.8557 16.6302 64.7734 16.8336 64.7734 17.0683C64.7734 17.303 64.8557 17.5048 65.0216 17.6708C65.1876 17.8367 65.3924 17.9189 65.6375 17.9189C65.8827 17.9189 66.0741 17.8352 66.24 17.6708C66.406 17.5048 66.4882 17.3045 66.4882 17.0683C66.4882 16.8321 66.4045 16.6302 66.24 16.4598C66.0741 16.2894 65.8738 16.2042 65.6375 16.2042C65.4013 16.2042 65.1876 16.2894 65.0216 16.4598Z" fill="#201F4F"/>
<path d="M70.8222 6.60633H69.4214V15.7602H70.8222V6.60633Z" fill="#201F4F"/>
<path d="M114.53 6.60633L114.516 14.3459H98.9356C99.1105 13.9961 99.1972 13.6119 99.1972 13.1933V9.27788H97.7964V13.1933C97.7964 13.5162 97.6828 13.7913 97.4555 14.0185C97.2283 14.2457 96.9532 14.3594 96.6303 14.3594H95.3865V9.27938H93.9991V12.6835C93.9991 13.1469 93.8362 13.5416 93.5088 13.869C93.1814 14.1964 92.7867 14.3594 92.3232 14.3594H91.2364V9.27938H89.8356V14.3474H75.3536V10.4978H73.9393V16.2984C73.9393 16.9621 73.7061 17.5272 73.2382 17.9937C72.7717 18.4601 72.2051 18.6948 71.5429 18.6948H70.8223V20.1091H71.5429C72.5908 20.1091 73.4878 19.7353 74.2338 18.9893C74.9798 18.2433 75.3536 17.3464 75.3536 16.2984V15.7617H91.9046C92.7433 15.7617 93.4101 15.5135 93.9079 15.0157L93.9991 14.9499V15.7617H114.935C115.215 15.7617 115.457 15.6615 115.662 15.4612C115.866 15.2608 115.97 15.0201 115.97 14.7406L115.956 6.60932H114.528L114.53 6.60633Z" fill="#201F4F"/>
<path d="M118.444 6.60633H117.043V15.7602H118.444V6.60633Z" fill="#201F4F"/>
<path d="M132.343 8.37493C132.57 8.37493 132.764 8.2942 132.926 8.13274C133.087 7.97128 133.168 7.77694 133.168 7.5497C133.168 7.32246 133.087 7.11615 132.926 6.95319C132.764 6.79174 132.57 6.71101 132.343 6.71101C132.115 6.71101 131.908 6.79174 131.746 6.95319C131.585 7.11465 131.504 7.31349 131.504 7.5497C131.504 7.78591 131.585 7.97128 131.746 8.13274C131.908 8.2942 132.106 8.37493 132.343 8.37493Z" fill="#201F4F"/>
<path d="M134.371 9.05516H132.198C131.167 9.05516 130.242 9.48273 129.421 10.3379C128.775 11.0883 128.453 11.9091 128.453 12.8001C128.453 13.3592 128.58 13.8526 128.832 14.2802L128.898 14.3594H125.69C125.035 14.3594 124.476 14.1277 124.014 13.6657C123.55 13.2038 123.32 12.6446 123.32 11.9898V11.794C123.32 11.2962 123.491 10.8028 123.832 10.3139L122.77 9.41097C122.202 10.1181 121.919 10.9119 121.919 11.794C121.919 12.972 122.299 13.9378 123.059 14.6883C123.784 15.4044 124.66 15.7617 125.691 15.7617H133.338C133.618 15.7617 133.86 15.6615 134.065 15.4612C134.27 15.2609 134.373 15.0202 134.373 14.7406V9.05815L134.371 9.05516ZM132.97 14.3594H132.236L131.988 14.3728C131.49 14.3728 131.045 14.2817 130.653 14.0978C130.112 13.8092 129.841 13.3772 129.841 12.8016C129.841 12.2604 130.046 11.7536 130.457 11.2827C130.999 10.7325 131.579 10.4575 132.199 10.4575H132.972V14.3594H132.97Z" fill="#201F4F"/>
<path d="M166.198 9.68305C165.644 9.12392 164.877 8.83987 163.919 8.83987C162.96 8.83987 162.193 9.12392 161.64 9.68305C161.087 10.2422 160.806 11.1481 160.806 12.374V12.694C160.806 12.7971 160.81 12.9033 160.821 12.9989C160.821 13.2531 160.794 13.4684 160.74 13.6373C160.689 13.8003 160.622 13.9318 160.54 14.0275C160.461 14.1202 160.372 14.2473 160.28 14.2861C160.181 14.3265 160.082 14.3459 159.987 14.3459H159.486H154.485V13.3383C154.485 12.2993 154.116 11.4113 153.379 10.6727C152.642 9.9357 151.752 9.56644 150.715 9.56644C149.283 9.56644 148.188 10.2392 147.429 11.5832L146.21 13.9527V11.0584H144.796V14.3459H138.786V10.4963H137.372V16.2969C137.372 16.9607 137.139 17.5258 136.671 17.9922C136.204 18.4587 135.638 18.6934 134.975 18.6934H134.255V20.1076H134.975C136.023 20.1076 136.92 19.7339 137.666 18.9879C138.412 18.2419 138.786 17.3449 138.786 16.2969V15.7602H159.487H159.879C160.181 15.7602 160.513 15.7138 160.864 15.6227C161.189 15.5389 161.465 15.3625 161.686 15.0815C161.938 15.3371 162.237 15.5315 162.579 15.6585C162.966 15.8035 163.418 15.8783 163.921 15.8783C164.391 15.8783 164.824 15.811 165.206 15.6765C165.593 15.5404 165.926 15.3266 166.195 15.0411C166.463 14.7571 166.672 14.3893 166.817 13.9453C166.961 13.5072 167.034 12.9795 167.034 12.374C167.034 11.1466 166.753 10.2422 166.2 9.68305H166.198ZM153.071 14.3459H147.598L148.685 12.2111H148.698C149.135 11.3993 149.807 10.9927 150.715 10.9927C151.361 10.9927 151.915 11.2214 152.377 11.6804C152.839 12.1393 153.071 12.691 153.071 13.3368V14.3444V14.3459ZM165.085 13.9303C164.844 14.2413 164.463 14.3938 163.919 14.3938C163.374 14.3938 162.993 14.2428 162.752 13.9303C162.507 13.6134 162.382 13.0886 162.382 12.374C162.382 11.7177 162.507 11.2035 162.755 10.8432C162.996 10.4933 163.377 10.3229 163.917 10.3229C164.457 10.3229 164.838 10.4933 165.079 10.8432C165.327 11.2035 165.452 11.7192 165.452 12.374C165.452 13.0886 165.328 13.6134 165.082 13.9303H165.085Z" fill="#201F4F"/>
<path d="M4.15483 18.0909C3.92759 18.0909 3.73324 18.1716 3.57178 18.3331C3.41032 18.4945 3.32959 18.6934 3.32959 18.9296C3.32959 19.1658 3.41032 19.3526 3.57178 19.5186C3.73324 19.6845 3.92759 19.7668 4.15483 19.7668C4.38206 19.7668 4.58837 19.683 4.75133 19.5186C4.91279 19.3526 4.99352 19.1568 4.99352 18.9296C4.99352 18.7023 4.91279 18.4945 4.75133 18.3331C4.58987 18.1716 4.39103 18.0909 4.15483 18.0909Z" fill="#201F4F"/>
<path d="M6.38068 18.0909C6.14447 18.0909 5.94564 18.1716 5.78418 18.3331C5.62272 18.4945 5.54199 18.6934 5.54199 18.9296C5.54199 19.1658 5.62272 19.3526 5.78418 19.5186C5.94564 19.6845 6.14447 19.7668 6.38068 19.7668C6.61689 19.7668 6.80227 19.683 6.96373 19.5186C7.12519 19.3526 7.20592 19.1568 7.20592 18.9296C7.20592 18.7023 7.12519 18.4945 6.96373 18.3331C6.80227 18.1716 6.60792 18.0909 6.38068 18.0909Z" fill="#201F4F"/>
<path d="M45.4972 13.1933C45.4972 13.5162 45.3835 13.7913 45.1563 14.0185C44.9291 14.2457 44.654 14.3594 44.3311 14.3594H43.0872V9.27938H41.6999V12.6835C41.6999 13.1469 41.5369 13.5416 41.2095 13.869C40.8821 14.1964 40.4874 14.3594 40.024 14.3594H38.9371V9.27938H37.5363V14.3205L35.9128 14.3474H31.1856L31.1721 6.62128H29.7444L29.731 14.3609H28.3436L26.8501 8.03555L25.4628 8.33604L26.8501 14.3594H24.7422V15.7602H39.6039C40.4426 15.7602 41.1094 15.512 41.6072 15.0142L41.6984 14.9484V15.7602H44.3311C45.0382 15.7602 45.6422 15.509 46.1445 15.0067C46.6468 14.5044 46.898 13.9004 46.898 13.1933V9.27788H45.4972V13.1933Z" fill="#201F4F"/>
<path d="M52.8826 6.61978L52.8692 14.3594H51.4818L49.9883 8.03405L48.601 8.33454L49.9883 14.3579H47.8804V15.7587H53.2878C53.5673 15.7587 53.8095 15.6585 54.0143 15.4582C54.2191 15.2578 54.3223 15.0172 54.3223 14.7376L54.3088 6.61829H52.8811L52.8826 6.61978Z" fill="#201F4F"/>
<path d="M56.7187 6.60634H55.3179V15.7602H56.7187V6.60634Z" fill="#201F4F"/>
<path d="M23.1335 9.68302C22.5789 9.1239 21.8119 8.83985 20.8536 8.83985C19.8954 8.83985 19.1284 9.1239 18.5753 9.68302C18.0221 10.2422 17.7411 11.1481 17.7411 12.374V12.6939C17.7411 12.7971 17.7456 12.9032 17.756 12.9989C17.756 13.2531 17.7291 13.4683 17.6753 13.6373C17.6245 13.8002 17.5572 13.9318 17.475 14.0275C17.3957 14.1202 17.2941 14.2622 17.1999 14.3011C17.1012 14.3414 17.0025 14.3609 16.9069 14.3609H16.6183H16.2506L12.5714 14.3474V12.5534C12.4488 10.0299 11.3619 8.76958 9.31081 8.76958L8.09239 8.78304C7.06234 8.80995 6.30737 9.11044 5.82748 9.68601C5.34759 10.2616 5.10689 10.9642 5.10689 11.794V13.2217H7.98774C8.59022 13.3966 8.89072 13.872 8.89072 14.6494C8.89072 15.0426 8.75019 15.3789 8.47212 15.657C8.19256 15.9366 7.85618 16.0756 7.46449 16.0756H3.66721C2.15727 16.0756 1.4023 15.2638 1.4023 13.6403C1.4023 12.8105 1.81642 12.1079 2.64614 11.5323L2.01674 10.2885C0.672746 11.0823 0 12.2215 0 13.706C0.113619 16.2206 1.37091 17.4779 3.77186 17.4779H7.46449C8.24189 17.4779 8.90716 17.2013 9.4618 16.6467C10.0164 16.0921 10.293 15.4268 10.293 14.6494C10.293 13.6104 10.0374 12.8793 9.52758 12.4562C9.0163 12.0332 8.4168 11.8209 7.72761 11.8209H6.50919C6.50919 10.7205 7.0459 10.1704 8.1193 10.1704H9.39004C10.5771 10.1704 11.1706 10.9642 11.1706 12.5534V15.7617H16.1848H16.421H16.8127C17.1147 15.7617 17.4466 15.7153 17.7979 15.6241C18.1223 15.5404 18.3989 15.364 18.6201 15.0829C18.8713 15.3386 19.1703 15.5329 19.5126 15.66C19.8998 15.805 20.3513 15.8798 20.8551 15.8798C21.3246 15.8798 21.7581 15.8125 22.1393 15.6779C22.5265 15.5419 22.8599 15.3281 23.129 15.0426C23.3966 14.7585 23.6059 14.3908 23.7509 13.9467C23.8945 13.5087 23.9677 12.981 23.9677 12.3755C23.9677 11.1481 23.6867 10.2436 23.1335 9.68452V9.68302ZM22.0197 13.9303C21.779 14.2413 21.3978 14.3937 20.8536 14.3937C20.3095 14.3937 19.9282 14.2427 19.6875 13.9303C19.4424 13.6134 19.3168 13.0886 19.3168 12.374C19.3168 11.7177 19.4424 11.2034 19.6905 10.8431C19.9312 10.4933 20.3125 10.3229 20.8521 10.3229C21.3918 10.3229 21.7731 10.4933 22.0138 10.8431C22.2619 11.2034 22.3875 11.7192 22.3875 12.374C22.3875 13.0886 22.2634 13.6134 22.0167 13.9303H22.0197Z" fill="#201F4F"/>
<path d="M68.4347 13.4355C67.7381 13.4908 67.0593 13.5924 66.4015 13.7434C65.7437 13.8944 65.1323 14.0858 64.5702 14.3175C64.0081 14.5492 63.5117 14.8228 63.0842 15.1368C62.6566 15.4507 62.3232 15.802 62.087 16.1892C61.8508 16.5764 61.7312 16.995 61.7312 17.4465C61.7312 17.9384 61.8598 18.3495 62.1169 18.6799C62.374 19.0103 62.7478 19.26 63.2381 19.4289C63.7285 19.5978 64.3175 19.6815 65.0052 19.6815C65.5748 19.6815 66.1384 19.6277 66.6961 19.5171C67.2537 19.408 67.768 19.251 68.2374 19.0462L68.647 20.5023C68.1088 20.734 67.5228 20.9074 66.8874 21.021C66.252 21.1347 65.6152 21.1915 64.9768 21.1915C64.3385 21.1915 63.7046 21.1212 63.1425 20.9792C62.5803 20.8387 62.087 20.6189 61.6624 20.3199C61.2393 20.0209 60.9089 19.6397 60.6757 19.1747C60.441 18.7098 60.3229 18.1522 60.3229 17.5003C60.3229 16.8949 60.4365 16.3313 60.6653 15.8095C60.8925 15.2878 61.2229 14.8168 61.652 14.3952C62.0825 13.9737 62.5998 13.6089 63.2038 13.2979C63.8077 12.9885 64.485 12.7418 65.2369 12.5594C64.9051 12.4189 64.5851 12.2873 64.2802 12.1662C63.9752 12.0451 63.7121 11.9464 63.4908 11.8687C63.2695 11.791 63.1096 11.7521 63.0094 11.7521C62.7448 11.7521 62.5071 11.8254 62.2948 11.9704C62.0825 12.1169 61.8912 12.3023 61.7177 12.531L61.4516 12.8584L60.1943 12.244L60.3857 11.936C60.7131 11.4038 61.0913 10.9837 61.5204 10.6787C61.9495 10.3737 62.4473 10.2212 63.0169 10.2212C63.2531 10.2212 63.5327 10.2795 63.8541 10.3961C64.1755 10.5128 64.5253 10.6563 64.9036 10.8297C65.2818 11.0031 65.672 11.1765 66.0756 11.3529C66.4793 11.5279 66.8814 11.6759 67.2821 11.797C67.6828 11.918 68.0685 11.9853 68.4377 11.9988V13.434L68.4347 13.4355Z" fill="#201F4F"/>
<path d="M93.455 7.21479L95.856 6.45832L96.0264 6.99353L93.6254 7.75598L93.455 7.21479ZM93.757 6.80516C93.6524 6.80516 93.5552 6.78124 93.467 6.73191C93.3115 6.64669 93.1964 6.49271 93.1261 6.27594C93.0828 6.14288 93.0529 6.00684 93.0379 5.87079C93.023 5.73624 93.017 5.58525 93.0215 5.4208V5.36399L93.5059 5.36698V5.42379C93.5059 5.54189 93.5103 5.65551 93.5178 5.76614C93.5253 5.87229 93.5417 5.96348 93.5642 6.03375C93.6225 6.21315 93.7152 6.23408 93.7809 6.23408C93.8153 6.23408 93.8527 6.2266 93.8945 6.21464C94.0007 6.18026 94.062 6.12046 94.0799 6.03076C94.0994 5.93059 94.0725 5.76315 93.9992 5.53591L93.9499 5.38492L94.3939 5.2414L94.4417 5.39239C94.515 5.61963 94.5912 5.77063 94.666 5.84089C94.7093 5.88126 94.7587 5.90069 94.817 5.90069C94.8499 5.90069 94.8857 5.89471 94.9246 5.88275C95.0905 5.82893 95.1399 5.72428 95.0816 5.54488C95.0577 5.47312 95.0188 5.38941 94.9665 5.29672C94.9111 5.20253 94.8498 5.10685 94.7811 5.01267L94.7482 4.96632L95.1339 4.68227L95.1683 4.72712C95.2684 4.85868 95.3522 4.98426 95.4194 5.10087C95.4882 5.21898 95.545 5.34755 95.5884 5.4806C95.6586 5.69737 95.6556 5.88873 95.5794 6.05019C95.5032 6.21165 95.3581 6.32826 95.1488 6.39553C95.0651 6.42244 94.9844 6.4359 94.9097 6.4359C94.7243 6.4359 94.5718 6.35218 94.4552 6.18923C94.4552 6.47178 94.3042 6.66912 94.0142 6.76181C93.9245 6.79021 93.8377 6.80516 93.7585 6.80516H93.757Z" fill="#201F4F"/>
<path d="M94.3862 6.0577C94.4371 6.38959 94.307 6.60486 93.9945 6.70652C93.8032 6.76782 93.6372 6.76034 93.4937 6.68111C93.3502 6.60337 93.2456 6.46135 93.1798 6.25803C93.1379 6.12796 93.1095 5.9964 93.0946 5.86335C93.0796 5.73179 93.0736 5.58378 93.0781 5.42083H93.4474C93.4474 5.54192 93.4519 5.65704 93.4593 5.76916C93.4668 5.88129 93.4833 5.97398 93.5087 6.05172C93.576 6.26102 93.7105 6.33427 93.9108 6.26999C94.0379 6.22813 94.1127 6.15338 94.1351 6.04275C94.1575 5.93212 94.1291 5.7572 94.0528 5.5195L94.0215 5.42382L94.3548 5.31618L94.3862 5.41186C94.464 5.65106 94.5432 5.80803 94.6269 5.88428C94.7092 5.96052 94.8153 5.97846 94.9424 5.9381C95.1397 5.87381 95.204 5.73777 95.1367 5.52698C95.1113 5.45073 95.0724 5.36402 95.0156 5.26834C94.9603 5.17266 94.8975 5.07549 94.8273 4.97831L95.1203 4.76154C95.2189 4.8916 95.3012 5.01419 95.3684 5.12931C95.4357 5.24442 95.491 5.36701 95.5329 5.49857C95.5987 5.70189 95.5972 5.8783 95.5269 6.02481C95.4566 6.17281 95.3251 6.27746 95.1307 6.34025C94.8183 6.44042 94.5866 6.34175 94.4341 6.04424L94.3862 6.05919V6.0577ZM95.8184 6.53011L95.9545 6.95619L93.6627 7.68275L93.5266 7.2522L95.8184 6.53011Z" fill="#201F4F"/>
<path d="M50.2214 18.8204L50.2109 18.4153L50.6206 18.4093C50.4636 18.2583 50.3888 18.0595 50.3888 17.8696C50.3888 17.3957 50.7237 17.0175 51.2515 17.0175C51.4727 17.0175 51.7104 17.0877 51.9362 17.2552L51.845 17.6439L51.824 17.6543C51.679 17.5302 51.5011 17.466 51.3008 17.466C50.9659 17.46 50.8314 17.6498 50.8314 17.8651C50.8314 18.064 50.939 18.2703 51.2245 18.3884L52.0707 18.3719L52.0812 18.7756L50.2214 18.8189V18.8204Z" fill="#201F4F"/>
</svg>
