<svg width="121" height="44" viewBox="0 0 121 44" fill="none" xmlns="http://www.w3.org/2000/svg">
<path d="M34.614 44H9.38626C4.20236 44 -6.10352e-05 39.798 -6.10352e-05 34.6141V9.38632C-6.10352e-05 4.20242 4.20236 0 9.38626 0H34.614C39.7975 0 43.9999 4.20242 43.9999 9.38632V34.6141C43.9999 39.798 39.7975 44 34.614 44Z" fill="#EE2038"/>
<path d="M34.3564 15.1099L41.2302 21.9977C41.2302 21.9977 36.4783 29.7176 21.5219 30.2959C21.5219 30.2959 33.3901 25.2175 34.3564 15.1099Z" fill="white"/>
<path d="M28.8775 34.3697L21.9893 41.2432C21.9893 41.2432 14.2698 36.4916 13.6919 21.5348C13.6919 21.5348 18.7695 33.4034 28.8775 34.3697Z" fill="white"/>
<path d="M9.643 28.8696L2.76996 21.9815C2.76996 21.9815 7.52118 14.262 22.4779 13.6837C22.4779 13.6837 10.6094 18.7617 9.643 28.8696Z" fill="white"/>
<path d="M15.1295 9.64493L22.0177 2.77151C22.0177 2.77151 29.7368 7.52311 30.3151 22.4795C30.3151 22.4795 25.2375 10.6113 15.1295 9.64493Z" fill="white"/>
<path d="M68.6371 13.634H76.5986V34.3711H81.0866V13.634H89.0482V9.50796H68.6371V13.634Z" fill="#171717"/>
<path d="M92.9936 34.3706H97.4812V9.50823H92.9936V34.3706Z" fill="#171717"/>
<path d="M57.2436 9.50823L46.8573 34.3706H51.8873L54.5866 27.9204H64.9677L67.6667 34.3706H72.6603L62.274 9.50823H57.2436ZM56.2149 24.0289L59.777 15.5155L63.3391 24.0289H56.2149Z" fill="#171717"/>
<path d="M115.6 21.2334C117.808 20.0389 119.111 18.2655 119.111 15.7329C119.111 12.1137 116.071 9.50811 111.764 9.50811H100.831V34.3701H112.235C113.527 34.3701 114.796 34.2809 115.681 33.8879C119.584 32.1545 120.132 28.8564 120.132 26.9956C120.132 24.2814 118.46 22.6089 115.6 21.2334ZM111.33 30.4616H105.318V23.9119V23.3688V19.6777V17.8555V13.4167H110.679C112.886 13.4167 114.478 14.7192 114.478 16.565C114.478 18.3744 112.886 19.6777 110.679 19.6777H109.344L107.81 23.3688H111.33C113.791 23.3688 115.528 24.8522 115.528 26.915C115.528 28.9786 113.791 30.4616 111.33 30.4616Z" fill="#171717"/>
</svg>
