<svg xmlns="http://www.w3.org/2000/svg" width="180" height="181" fill="none" viewBox="0 0 180 181"><path fill="#100B42" d="M139.591 26.51c.233.126.467.252.719.36 2.41.899 4.118 2.373 4.622 5.161.288 1.619.576 2.913.378 5.467-.054.756 1.097.576 1.133-.18.018-.665 0-1.349.09-1.996.521-3.795 1.888-7.607 5.125-9.1.288-.126.702-.234.702-.63.017-.61-.504-.467-.828-.593-2.967-1.24-4.766-4.154-5.269-7.823-.072-.593.144-3.147-.468-3.399-.881-.342-.557 2.446-.557 2.931-.018 1.835-.288 3.561-1.223 5.054-1.061 1.709-2.32 3.165-4.047 3.939a3.168 3.168 0 0 0-.413.251c-.162.09-.162.432.036.558ZM108.57 5.644a1.727 1.727 0 1 0 0-3.453 1.727 1.727 0 0 0 0 3.453Z"/><path fill="#100B42" d="M108.57 5.644a1.727 1.727 0 1 0 0-3.453 1.727 1.727 0 0 0 0 3.453ZM108.408 172.565c-.557.144-1.097.234-1.636.198.054-.09.126-.162.18-.251h-.198a80.426 80.426 0 0 1-2.068-.252c-1.385-.216-2.788-.468-4.155-.864 1.421 1.475 2.554 3.04 4.622 3.525 2.914.666 5.395-.701 7.661-2.463a57.589 57.589 0 0 1-3.956.125c-.144-.018-.288-.018-.45-.018ZM87.365 155.549c-1.475-2.716-2.536-5.431-4.029-8.003.018.665.018 1.313-.018 1.978-.018.72-.072 1.457-.162 2.212a59.69 59.69 0 0 1 1.763 3.561c1.816 3.993 4.55 7.428 7.84 10.161.792.666 1.62 1.259 2.447 1.853 1.043.557 2.104 1.097 3.219 1.528 1.133.468 2.266.917 3.399 1.259.414.108.827.198 1.241.288-1.637-1.547-3.471-2.842-5.377-4.137-4.209-2.841-7.752-5.988-10.323-10.7Z"/><path fill="#100B42" d="M112.69 170.998c-.198-.216-.485-.27-.791-.252-.324 0-.666.072-.917.09a72.28 72.28 0 0 1-2.842.108h-.072c-.863 0-1.708-.09-2.572-.162-.036 0-.089 0-.125-.018h-.036a20.062 20.062 0 0 1-2.248-.36h-.018c-.414-.09-.828-.18-1.241-.288-1.151-.341-2.266-.791-3.4-1.259-1.114-.431-2.175-.971-3.218-1.528-1.116-.594-2.213-1.223-3.31-1.817-1.025-.539-1.924-1.276-2.823-1.996-.881-.737-1.78-1.493-2.608-2.302-1.87-1.888-4.64-2.985-3.938-5.917.287-1.205.485-2.374.629-3.525.09-.737.144-1.474.162-2.212.036-.665.036-1.33.018-1.978a21.034 21.034 0 0 0-.414-3.669c-.323-1.474-.755-2.913-1.33-4.226-.288-.665-.594-1.313-.882-1.96l-.81-1.996a16.455 16.455 0 0 1-.79-2.41 13.06 13.06 0 0 1-.342-2.356 10.282 10.282 0 0 1 .575-3.723c.972-2.68 2.968-5.054 5.054-7.266.414-.449.845-.881 1.277-1.313.755-.773 1.51-1.528 2.248-2.301.935-.972 1.816-1.925 2.626-2.932a70.549 70.549 0 0 1 7.697-8.183c1.385-1.277 2.787-2.5 4.226-3.704 1.439-1.187 2.878-2.41 4.478-3.346.468-.305.612-.7.018-.647-3.147.252-6.402.935-9.765 1.115-3.004.414-5.863 1.403-8.543 2.806-.27.143-.521.269-.773.413-.414.252-.845.522-1.259.774-2.428 1.492-4.748 2.931-6.816 4.783a32.802 32.802 0 0 0-3.381 3.507c-.108.126-.198.27-.306.396-.827 1.079-1.546 2.248-2.194 3.435l-.162.27a36.473 36.473 0 0 0-1.852 3.992 36.276 36.276 0 0 0-1.259 4.119c-.737 2.841-.935 5.665-.953 8.632.144 5.809 1.618 11.78 4.406 17.301l-.737-.935c-4.263-5.234-8.165-10.845-10.88-17.013-2.555-5.791-3.724-12.104-3.813-18.182 0-1.385.107-2.716.27-4.011.09-.647.18-1.295.305-1.96.162-.612.342-1.241.504-1.907.7-2.481 1.169-4.891.629-7.391-.198-.9-.522-1.763-.881-2.626a21.19 21.19 0 0 0-1.187-2.5c-.468-.863-1.043-1.654-1.475-2.5-.413-.845-.701-1.762-.647-2.787.108-2.536.917-5.072 1.115-7.59.341-1.978.737-3.92 1.169-5.844.485-1.942 1.007-3.849 1.636-5.72 2.392-6.923 5.917-13.325 10.125-19.152.09-.144 1.457-1.943 2.23-3.507.756-1.565.882-2.932-1.564-2.284-2.752.737-5.413 1.798-7.86 3.255-2.445 1.457-4.585 3.273-6.384 5.485a364.205 364.205 0 0 0-2.464-18.811c-.521-3.274-1.582-6.08-3.255-8.65-1.618-2.573-3.776-4.785-6.366-6.799-.576-.45-1.385.198-1.259.845.288 1.367.486 2.734.611 4.119.144 1.385.252 2.86.288 4.28a342.3 342.3 0 0 1 .072 4.298c0 1.421-.018 2.86-.018 4.28-.018 5.72.054 11.492 1.349 17.014 1.385 5.773 3.453 11.366 5.18 16.869 1.744 5.52 3.183 10.97 3.362 16.833-1.492-2.104-2.967-4.154-4.244-6.06a127.103 127.103 0 0 0-2.95-4.46l-3.02-4.479c-1.53-2.176-3.112-5.341-5.702-6.456-2.77-1.187-5.575-1.223-8.506-1.439-4.047-.306-8.075-1.259-11.96-2.644-.773-.287-1.384.558-.97 1.403 1.33 2.68 2.84 5.324 4.297 7.913 1.511 2.59 3.076 5.126 4.676 7.59 1.44 2.14 2.752 3.884 4.299 5.269 1.582 1.385 3.345 2.428 5.593 3.183a25.79 25.79 0 0 1 4.28 1.852c1.33.72 2.536 1.53 3.65 2.446 2.195 1.835 4.209 4.065 6.115 6.727.882 1.222 1.853 2.41 2.716 3.632.432.612.863 1.223 1.259 1.853.431.611.827 1.241 1.205 1.888.971 1.673 1.403 3.381 1.69 5.108.288 1.744.216 3.524.36 5.377.072 1.205.162 2.41.306 3.615.126 1.223.377 2.374.611 3.56.252 1.187.504 2.374.863 3.543a60.67 60.67 0 0 0 1.187 3.471 56 56 0 0 0-2.176-3.219c-.755-1.061-1.492-2.104-2.302-3.093-1.636-1.942-3.327-3.903-5.269-5.611-.486-.432-.99-.863-1.493-1.241-.467-.36-.953-.684-1.456-1.007a22.007 22.007 0 0 0-3.166-1.655 19.43 19.43 0 0 0-1.708-.629l-.45-.144-.054-.018h-.036c-.054-.144.108.324-.108-.324h-.018l-.108-.036-.215-.09a18.236 18.236 0 0 0-.918-.305 22.406 22.406 0 0 0-3.902-.864c-6.133-.863-12.697 1.403-18.578 2.536-2.787.54-5.827.432-8.398 1.799-1.241.665-2.32 1.672-2.842 3.309-1.295 4.118 4.208 1.978 5.467 1.834.774-.09 1.547-.162 2.338-.198.396-.018.774-.018 1.17-.018l.593.018.287.018h.036c-.251-.773.36 1.061.288.863h.252c1.529-.036 3.057.108 4.568.558 1.007.306 1.996.665 2.967 1.061l1.44.593.718.306.81.486c2.158 1.295 4.298 2.482 6.564 3.201 2.536.881 5.072 1.187 7.571 1.601 2.518.377 4.964.755 7.464 1.258 2.482.504 4.945 1.151 7.247 2.177 1.709.737 3.112 2.05 4.694 2.949a8.822 8.822 0 0 1 1.511 1.043c.432.342.773.719 1.097 1.115.63.809 1.115 1.745 1.78 2.932.792 1.384 1.691 2.679 2.608 3.992.468.647.917 1.295 1.439 1.888a29.815 29.815 0 0 0 1.636 1.745c4.604 5.647 9.658 10.826 15.251 15.448.791.63 1.583 1.241 2.374 1.835.791.593 1.6 1.187 2.464 1.69a74.342 74.342 0 0 0 2.572 1.529l1.294.719c.45.234.9.432 1.35.63a38.625 38.625 0 0 0 3.992 1.528h.018c1.367.378 2.769.648 4.154.864.701.107 1.385.197 2.068.251h.198l1.439.054h.467c1.349.018 2.68-.036 3.957-.126h.108v-.09c-.018-.287-.036-1.007-.288-1.258ZM63.108 48.273c1.043-.737 2.212-1.313 3.363-1.888.305-.126 5.575-2.464 3.884-.324l-.611.791c-.396-.215-.971.288-.612.666.018.018.054.036.072.054l-.63.845a.451.451 0 0 0-.125-.306c-.414-.395-1.115.234-.665.612.161.144.36.144.503.072a78.857 78.857 0 0 0-2.985 4.532 86.734 86.734 0 0 0-2.644 4.748c-.917 1.852-1.852 3.794-2.68 5.79-.79 1.997-1.636 4.083-2.248 6.205l-.036-2.302c.522-.036.594-.827.036-.881h-.054l-.018-.953a.304.304 0 0 0 .18.054c.594.072.72-.792.126-.882a.431.431 0 0 0-.342.09l-.18-3.524c1.026-1.673 2.069-3.256 3.274-4.802.252-.324-.252-.72-.504-.396-1.097 1.33-1.996 2.734-2.841 4.226l-.252-3.255a66.307 66.307 0 0 0-.288-3.255c1.906-2.23 3.885-4.208 6.277-5.917ZM53.522 70.07c-.234-1.259-.414-2.536-.63-3.813-.197-1.276-.449-2.553-.629-3.83.09.054.216.072.36.036.575-.162.324-1.025-.252-.863-.09.035-.162.072-.198.125l-.144-.97c.036 0 .072 0 .108-.019.558-.161.306-1.007-.252-.863l-.161-.917c.323-.198.215-.702-.144-.81a24.679 24.679 0 0 1-.18-1.132.468.468 0 0 0-.072-.432c-.27-1.763-.63-3.525-.935-5.287-.072-.36-.63-.342-.594.036.126 1.133.324 2.284.486 3.417-.378.197-.252.773.126.845l.162 1.06a.466.466 0 0 0 .09.54c.233 1.457.503 2.896.755 4.335.234 1.438.503 2.877.755 4.316.126.755.666 3.273 1.295 6.133a204.706 204.706 0 0 0-2.734-8.561c-.917-2.877-1.924-5.773-2.733-8.704-1.78-6.205-2.518-12.535-2.392-19.046.036-2.104.108-4.172.09-6.258.018-2.086-.018-4.19-.162-6.277a.635.635 0 0 0 .162-.072c.36-.27.126-.755-.216-.809a31.187 31.187 0 0 0-.198-1.816c1.277 1.187 2.338 2.392 3.237 3.704a21.625 21.625 0 0 1 2.248 4.083 31.608 31.608 0 0 1 1.475 4.46c.396 1.565.666 3.22.935 4.964a499.778 499.778 0 0 1 2.176 17.408c.288 3.004.54 5.971.63 8.939a.46.46 0 0 0-.468-.18c-.575.126-.395.97.198.863a.371.371 0 0 0 .288-.18l.036 1.061c-.054 0-.09-.018-.144 0-.575.108-.432.971.162.863h.018v.918c-.36.161-.324.665 0 .79 0 .379 0 .738.018 1.116-.09.144-.072.324 0 .468.036 2.175-.09 4.37-.144 6.546a.482.482 0 0 0-.018.467l-.054 1.08c-.45.053-.575.7-.09.863l-.144.935a.39.39 0 0 0-.144-.09c-.108-.036-.197-.018-.288 0a37.188 37.188 0 0 0-.539-2.824c-.432-2.212-.755-4.424-1.151-6.618Zm2.032 10.233-.072.63c-.018-.18-.072-.378-.108-.576a.304.304 0 0 0 .18-.054Zm1.853 24.944a.39.39 0 0 0-.198.18 26.32 26.32 0 0 0-.522-.989.419.419 0 0 0 .36 0c.108-.036.162-.108.216-.198.072.324.126.666.18 1.007h-.036Zm.79.648c.163-1.709-.467-3.327-1.168-4.946a.29.29 0 0 0 .162-.054c.521-.288.072-1.079-.45-.791l-.054.054-.395-.846c.503-.27.108-.989-.378-.809l-.432-.863c.306-.288.018-.827-.395-.773a13.427 13.427 0 0 1-.45-.882c.252-.287 0-.773-.378-.755l-.467-.881c.252-.288-.018-.791-.396-.755l-.485-.864c.305-.306-.018-.863-.432-.755l-.504-.845c.324-.306-.018-.9-.45-.756l-.52-.88c.107-.27-.127-.612-.396-.648l-.738-1.17c-4.873-7.409-13.182-12.426-20.79-16.994-.431-.27-.827.557-.395.845 3.363 2.266 6.672 4.334 9.873 6.6a63 63 0 0 1 4.586 3.597 40.05 40.05 0 0 1 4.208 4.172 30.027 30.027 0 0 1 3.364 4.766 108.16 108.16 0 0 1 2.787 5.072c.666 1.348 1.457 2.625 2.068 3.92.306.648.594 1.313.845 1.978.27.666.504 1.331.684 2.015a.373.373 0 0 0-.432-.036c-.18.09-.252.216-.252.377l-.143-.251c-2.878-4.928-6.51-10.036-10.683-14.19-2.356-2.284-5.126-3.399-7.913-4.496-2.788-1.115-5.647-2.23-7.841-4.658-4.388-4.73-7.662-11.222-10.719-17.3 4.622 1.42 9.298 2.067 14.136 2.373 1.852.126 3.489.828 4.946 1.87 1.456 1.062 2.733 2.464 3.956 4.029 2.374 3.13 4.388 6.816 6.223 9.586a.385.385 0 0 0-.378.108c-.432.413.18 1.079.63.683a.418.418 0 0 0 .143-.234l.612.881a.537.537 0 0 0-.144.072c-.45.396.126 1.08.593.72a.246.246 0 0 0 .054-.072l.54.791c-.018 0-.018 0-.036.018-.468.36.072 1.079.54.737l.503.756c-.468.341.036 1.043.521.755l.522.755c-.504.324 0 1.061.486.774l.017-.018.522.773c-.018.018-.054.018-.072.018-.521.306-.054 1.061.45.791a.216.216 0 0 0 .09-.09l.521.828a.41.41 0 0 0-.198.054c-.521.27-.126 1.06.414.809a.52.52 0 0 0 .198-.198l.647 1.043a.402.402 0 0 0-.45-.036c-.539.252-.143 1.043.396.81.216-.09.288-.27.252-.432 1.043 1.672 1.87 3.38 2.68 5.09.809 1.726.773 3.398.593 5.017-.072-.198-.252-.36-.521-.306-.576.126-.396.971.18.881a.409.409 0 0 0 .27-.161c-.055.359-.127.719-.199 1.079a.438.438 0 0 0-.18.773c-.125.468-.251.971-.377 1.475Zm1.17 25.879c-.144-.288-.558-.468-.81-.18l-.017-.018c.018-.018.054-.036.072-.054a.478.478 0 0 0-.342-.791.441.441 0 0 0-.468-.072c-.09-.36-.611-.611-.863-.252a.421.421 0 0 0-.072.378l-.881-.36a.465.465 0 0 0-.072-.485c.054-.018.108-.054.162-.09.054.341.503.611.791.341.144.072.306.09.468-.054.45-.395-.108-1.097-.576-.755-.018 0-.018.018-.018.018-.162-.09-.36-.09-.503.054-.054-.378-.594-.683-.864-.306-.144.216-.09.432.054.594-.107.018-.197.09-.251.216-.018.036-.018.072-.036.107-.396-.143-.81-.269-1.205-.395.161.018.305-.054.395-.216.288-.54-.575-1.061-.845-.504-.126.27 0 .522.216.648l-.558-.18c-2.176-1.133-4.28-2.212-6.636-3.057-1.403-.522-2.823-.864-4.262-1.241-1.439-.378-2.896-.756-4.334-1.133-1.457-.396-2.914-.809-4.388-1.367-.36-.144-.738-.288-1.098-.45-.36-.161-.737-.341-1.06-.431a20.45 20.45 0 0 1-1.979-.774c-.467-.197-.72.504-.27.72l.81.378c.27.125.54.215.863.395.611.342 1.223.63 1.834.899 1.223.54 2.464.99 3.687 1.367 2.464.738 4.91 1.313 7.356 1.799 1.996.431 3.902 1.115 5.719 1.942-2.194-.486-4.46-.863-6.744-1.223-.09-.558-.81-.647-.9-.144l-.97-.162c-.109-.485-.756-.593-.882-.144a19.47 19.47 0 0 1-.971-.179c-.036-.63-.845-.864-.917-.198l-.971-.216c0-.036.017-.054.017-.09.072-.701-.827-1.061-.935-.36-.018.072 0 .144 0 .216l-.36-.09-.737-.216a.416.416 0 0 0 .162-.305c.108-.702-.81-1.115-.935-.414a.693.693 0 0 0 .126.522 30.045 30.045 0 0 1-3.525-1.313 25.867 25.867 0 0 1-1.763-.828c-.611-.341-1.133-.503-1.654-.719-2.248-.881-4.406-2.266-6.834-2.662l-.324-.054-.09-.018h-.036c.234.72-.323-.971-.27-.791h-.035l-.162-.036-.684-.126c-.45-.09-.899-.162-1.33-.234a16.373 16.373 0 0 0-2.644-.125c-1.745.054-3.471.359-5.144.845.108-.126.162-.36.072-.63-.27-.755-1.133-.377-.827.36.09.234.252.36.396.378-.36.108-.738.216-1.097.359.593-2.445 1.924-3.596 3.956-3.542l2.932-.54 7.283-1.367c4.982-.989 9.91-2.338 15.089-1.672a27 27 0 0 1 1.187.18l.288.053h.036c-.018-.089.233.72.126.378h.035l.072.018.144.018c.198.036.378.054.558.09.737.126 1.456.306 2.14.522a16.367 16.367 0 0 1 3.813 1.762c-.27.432.323.935.7.54.019-.018.019-.036.037-.054.27.179.522.377.81.611a.368.368 0 0 0-.18.126c-.396.45.287 1.169.683.737a.462.462 0 0 0 .126-.323c.377.323.719.665 1.079 1.007a.391.391 0 0 0-.522.054c-.413.431.234 1.169.648.755.215-.198.162-.486.018-.665 1.007.971 1.924 2.014 2.823 3.093a40.803 40.803 0 0 1 2.59 3.237c.81 1.133 1.618 2.266 2.428 3.417.809 1.151 1.528 2.32 2.302 3.453a.256.256 0 0 0-.252.018Zm.683.593.018-.036.036.072-.054-.036Zm21.905 18.956c-.036 1.654-.288 3.399-.773 5.251l-.108-.126a.6.6 0 0 0-.18-.305l-.396-1.133c.306-.234.18-.828-.287-.846l-.378-1.097c.072.09.18.144.324.144.593.018.647-.881.036-.935-.306-.018-.468.198-.486.432l-1.187-3.921-.575-1.924c-.18-.648-.342-1.313-.504-1.961l-.953-3.866c-.27-1.295-.504-2.608-.737-3.885.09.198.287.36.557.252.558-.216.252-1.043-.306-.845a.413.413 0 0 0-.287.395l-.216-1.24a.51.51 0 0 0 .234 0c.557-.18.341-1.008-.234-.864a.36.36 0 0 0-.144.072 18.596 18.596 0 0 1-.09-.953h.09c.557-.126.468-.971-.108-.899-.018 0-.018.018-.036.018-.018-.306-.018-.612-.036-.917h.036c.576-.036.594-.9.018-.9h-.036c0-.305.018-.611.036-.917.036 0 .054.018.09.018.575.036.701-.809.144-.881a.35.35 0 0 0-.144.018c.036-.342.072-.665.144-1.007a.365.365 0 0 0 .216.126c.557.09.809-.72.287-.863a.474.474 0 0 0-.36.053c.576-2.661 1.547-5.107 3.022-7.409 1.457-2.32 3.31-4.424 5.45-6.384.449-.414-.163-.9-.63-.522-2.5 2.068-4.73 4.568-6.403 7.392-.863 1.42-1.492 2.895-1.978 4.424-.467 1.528-.81 3.147-.881 4.747-.432 7.734 1.834 16.186 5.053 23.973-3.614-5.125-6.078-10.718-7.14-16.455-.269-1.439-.413-2.896-.503-4.334a43.17 43.17 0 0 1-.09-2.158c0-.72.036-1.457.09-2.177.108-1.456.27-2.895.522-4.316a40.879 40.879 0 0 1 1.115-4.298c.737-2.41 1.924-4.802 3.345-7.014.72-1.097 1.474-2.176 2.338-3.165a29.061 29.061 0 0 1 2.841-2.716c3.993-3.381 8.83-5.683 13.938-7.103-.09.072-.126.161-.072.233.162.288.99-.054.863-.323-.018-.054-.072-.072-.126-.09l1.008-.252v.036c.108.27.845.018.863-.234l1.043-.234a.802.802 0 0 0 .486-.108 67.048 67.048 0 0 1 4.172-.683.194.194 0 0 0-.054.126c.036.252.737.018.827-.234l.198-.018-.683.432s0-.018-.018-.018c-.234-.18-1.008.234-.756.413.018.018.054.018.09.036l-.827.54c.018-.054.018-.108-.036-.144-.252-.18-1.007.234-.755.432.072.054.197.054.323.018-.989.611-1.852 1.366-2.751 2.104-.9.737-1.78 1.493-2.644 2.266-1.744 1.546-3.435 3.165-4.982 4.874-2.374 2.625-4.262 5.395-6.888 8.092-2.122 2.195-4.226 4.353-5.934 6.906a11.652 11.652 0 0 0-1.493 3.094 11.503 11.503 0 0 0-.414 3.129 14.66 14.66 0 0 0 .396 3.165c.27 1.043.647 2.068 1.079 3.111.647 1.637 1.33 3.166 1.852 4.73.252.792.486 1.565.684 2.356.216.774.395 1.547.54 2.338.233 1.601.323 3.255.27 4.928Z"/><path fill="#100B42" d="M54.141 127.389c.414-.414-.197-1.151-.647-.738-.432.414.216 1.169.647.738ZM52.829 125.895c.431-.414-.198-1.169-.648-.755-.431.413.216 1.169.648.755ZM50.884 123.645c-.431.414.216 1.151.666.756.431-.432-.234-1.187-.666-.756ZM49.558 122.17c-.414.468.27 1.151.683.738.432-.432-.27-1.187-.683-.738ZM48.828 121.418c.395-.468-.342-1.223-.72-.738-.377.486.324 1.205.72.738ZM47.314 119.977c.378-.504-.45-1.205-.773-.684-.324.522.414 1.169.773.684ZM45.775 118.668c.323-.558-.576-1.169-.846-.594-.27.558.54 1.115.846.594ZM44.054 117.533c.27-.54-.611-.954-.845-.378-.216.539.575.899.845.378ZM41.455 116.617c-.108.575.72.773.9.233.179-.593-.792-.827-.9-.233ZM53.74 127.927c-.342.486.45 1.133.81.63.323-.504-.468-1.133-.81-.63ZM52.187 126.617c-.36.486.413 1.151.773.665.36-.503-.413-1.151-.773-.665ZM50.663 125.284c-.36.486.414 1.151.774.666.36-.486-.414-1.151-.774-.666ZM49.07 123.954c-.342.503.431 1.151.79.665.36-.503-.449-1.169-.79-.665ZM47.426 122.64c-.323.557.486 1.169.828.665.342-.503-.504-1.223-.828-.665ZM45.703 121.401c-.252.593.576 1.151.881.593.288-.557-.629-1.187-.88-.593ZM43.868 120.412c-.144.629.719 1.061.935.449.234-.611-.791-1.115-.935-.449ZM51.755 127.982c-.27.558.593 1.025.863.486.234-.54-.611-1.043-.863-.486ZM50.062 126.996c-.252.575.593 1.043.845.485.27-.557-.593-1.043-.845-.485ZM48.329 126.037c-.234.576.63 1.043.863.468.252-.576-.63-1.043-.863-.468ZM46.534 125.104c-.215.593.648 1.043.882.467.233-.575-.648-1.043-.882-.467ZM44.791 124.188c-.216.629.683 1.043.9.468.215-.576-.684-1.097-.9-.468ZM42.966 123.199c-.198.63.701 1.115.899.486.216-.612-.701-1.115-.9-.486ZM41.164 122.228c-.18.648.72 1.133.917.486.18-.63-.737-1.115-.917-.486ZM39.324 121.293c-.162.647.755 1.115.935.468.162-.648-.773-1.133-.935-.468ZM37.437 120.374c-.144.666.791 1.115.935.468.162-.666-.791-1.133-.935-.468ZM35.626 119.675c-.18.558.683.863.881.306.198-.558-.683-.863-.881-.306ZM33.852 119.113c-.18.575.702.827.881.269.198-.575-.719-.845-.88-.269Z"/><path fill="#100B42" d="M55.654 127.833a.487.487 0 0 0-.198.342c-.162-.198-.45-.27-.666-.054-.413.432.288 1.151.684.701a.386.386 0 0 0 .108-.287c.143.161.377.251.593.09.504-.36-.018-1.134-.521-.792ZM55.142 127.03c.485-.324 0-1.133-.504-.809-.503.323 0 1.133.504.809ZM54.164 125.409c.503-.342-.036-1.151-.522-.791-.485.341.018 1.133.522.791ZM52.497 123.052c-.468.36.09 1.133.557.773.486-.36-.09-1.151-.557-.773ZM51.936 122.282c.467-.378-.144-1.151-.594-.755-.467.413.126 1.133.594.755ZM50.691 120.734c.45-.395-.18-1.187-.611-.773-.432.414.161 1.187.611.773ZM10.75 118.466c.251.756 1.06.504.863-.251-.198-.774-1.097-.504-.864.251ZM12.554 118.017c.18.773 1.043.612.9-.144-.145-.773-1.08-.611-.9.144ZM14.352 117.785c.126.755.99.719.918-.036-.072-.755-1.026-.719-.918.036ZM16.191 117.786c.072.755.954.809.936.072-.037-.756-1.008-.828-.936-.072ZM18.055 118.001c0 .737.88.899.935.18.036-.755-.935-.935-.935-.18ZM20.757 118.847l.018-.036c.018-.036.018-.072.036-.126.108-.72-.863-1.025-.917-.288a.73.73 0 0 0 .108.45c.036.054.09.108.126.144l.036.018h.018l.27.791h.018c.018.018.054.018.072.018.107.018.215 0 .323-.054a.42.42 0 0 0 .126-.126l.018-.036v-.018c-.521-1.511-.144-.396-.252-.737ZM21.93 119.69c-.143.576.702.792.882.234.18-.575-.738-.827-.882-.234ZM23.67 120.211c-.197.558.648.864.846.306.216-.557-.648-.881-.846-.306ZM25.38 120.845c-.216.558.61.9.845.342.233-.539-.612-.899-.846-.342ZM27.04 121.526c-.233.557.612.899.846.342.233-.54-.612-.882-.845-.342ZM28.724 122.229c-.108.27.036.503.252.593.234.126.486.072.594-.233.215-.576-.63-.918-.846-.36ZM31.395 123.577c.144-.701-.773-1.205-.935-.504-.144.702.792 1.205.935.504ZM33.31 124.529c.125-.701-.792-1.151-.936-.467-.144.719.81 1.169.935.467ZM58.356 100.951c.593-.125.395-1.025-.198-.881-.558.144-.378 1.007.198.881ZM57.951 99.202c.594-.162.342-1.025-.233-.864-.558.162-.324 1.008.233.864ZM57.153 96.638c-.558.18-.27 1.025.287.845.576-.162.27-1.025-.287-.845ZM56.506 94.946c-.557.216-.252 1.043.306.845.575-.198.252-1.043-.306-.845ZM55.842 93.29c-.54.234-.197 1.043.342.828.576-.234.198-1.062-.342-.828ZM46.72 79.66c-.431.43.216 1.078.648.665.431-.414-.234-1.097-.648-.666ZM45.402 78.36c-.395.45.27 1.08.684.63.395-.432-.288-1.08-.684-.63ZM56.309 102.788c.54-.251.126-1.079-.396-.809-.54.27-.143 1.061.396.809ZM55.477 101.162c.54-.269.126-1.079-.396-.809-.522.288-.126 1.079.396.809ZM54.672 99.564c.521-.287.09-1.079-.432-.791-.522.288-.108 1.079.432.791ZM53.766 97.984c.521-.288.035-1.079-.468-.791-.504.306-.054 1.079.468.791ZM52.828 96.42c.503-.306.036-1.097-.468-.773-.503.305-.054 1.079.468.773ZM51.876 94.871c.504-.323 0-1.097-.503-.773-.486.342 0 1.097.503.773ZM50.855 93.344c.486-.342-.054-1.097-.54-.755-.467.341.054 1.097.54.755ZM49.797 91.83c.486-.359-.054-1.114-.54-.737-.467.36.073 1.097.54.738ZM48.71 90.362c.468-.36-.107-1.115-.557-.737-.468.377.09 1.097.558.737ZM47.597 88.9c.468-.379-.144-1.116-.593-.72-.45.395.144 1.097.593.72ZM46.402 87.462c.45-.395-.18-1.115-.63-.701-.431.413.18 1.115.63.701ZM45.15 86.06c.431-.415-.198-1.116-.63-.684-.413.431.198 1.097.63.683ZM43.86 84.694c.432-.432-.234-1.115-.647-.666-.432.432.215 1.097.647.665ZM42.57 83.341c.414-.45-.288-1.115-.683-.647-.396.467.27 1.097.683.647ZM55.133 62.055c-.575.126-.395.99.18.864.594-.108.414-.99-.18-.864ZM54.736 60.325c-.576.126-.378.99.198.863.593-.126.395-.989-.198-.863ZM54.298 58.583c-.575.126-.377.989.198.863.594-.108.378-.99-.198-.863ZM54 56.836c-.594.107-.414.989.161.88.594-.125.432-.988-.162-.88ZM53.663 55.075c-.594.09-.432.989.144.881.593-.108.431-.971-.144-.881ZM53.418 53.293c-.593.072-.467.971.126.882.576-.072.468-.954-.126-.882ZM53.278 52.393c.594-.053.522-.935-.072-.899-.593.054-.54.953.072.9ZM53.174 50.595c.594-.036.558-.917-.035-.9-.594.037-.558.936.035.9ZM53.071 48.8c.594-.017.576-.916-.018-.898-.593.018-.575.917.018.899ZM53.015 46.997c.594 0 .594-.917 0-.9-.593.019-.593.918 0 .9ZM53.025 45.202c.593-.018.575-.917-.018-.899-.594.018-.576.917.018.9ZM52.973 43.401c.593-.018.54-.935-.054-.899-.593.036-.54.917.054.9ZM52.868 41.585c.594-.036.522-.971-.09-.9-.575.072-.503.954.09.9ZM52.654 39.788c.611-.072.45-.989-.126-.899-.594.108-.468.971.126.9ZM52.404 38.007c.594-.108.396-1.025-.18-.9-.593.144-.413 1.008.18.9ZM51.972 36.223c.576-.144.342-1.043-.234-.881-.575.162-.341 1.025.234.88ZM51.22 33.6c-.557.198-.287 1.043.27.864.576-.162.288-1.044-.27-.864ZM50.63 31.874c-.557.215-.252 1.06.324.863.557-.198.234-1.08-.324-.863ZM49.895 30.2c-.54.251-.162 1.06.377.845.54-.252.162-1.097-.377-.845ZM49.116 28.526c-.522.288-.144 1.08.413.827.522-.251.108-1.097-.413-.827ZM48.24 26.913c-.504.306-.072 1.098.45.81.52-.288.071-1.115-.45-.81ZM47.255 25.328c-.485.341 0 1.097.504.79.522-.323-.018-1.132-.504-.79ZM46.198 23.78c-.467.36.054 1.115.54.773.467-.341-.072-1.133-.54-.773ZM54.99 76.347c.612.036.63-.863.037-.881-.594 0-.612.845-.036.881ZM55.007 73.708c-.594.036-.576.881.018.881.593 0 .575-.917-.018-.88ZM54.985 72.825c.594-.054.504-.953-.09-.882-.575.09-.503.936.09.882ZM54.776 71.08c.593-.09.431-.97-.144-.863-.594.09-.432.935.144.863ZM54.446 69.335c.575-.107.395-.989-.18-.863-.594.126-.396.971.18.864ZM54.062 67.606c.576-.126.36-1.007-.216-.864-.575.144-.36 1.007.216.864ZM53.64 65.9c.575-.143.324-1.006-.252-.862-.575.162-.323 1.007.252.863ZM52.85 63.326c-.575.162-.305 1.025.27.845.576-.161.306-1.007-.27-.845ZM58.324 63.347c-.575-.144-.791.774-.198.864.576.108.774-.72.198-.864ZM58.89 61.637c-.557-.216-.881.683-.306.845.558.162.846-.63.306-.845ZM59.668 60.041c-.521-.287-.989.558-.431.792.539.234.953-.504.431-.791ZM60.2 59.281c.485.306 1.025-.36.557-.701-.467-.36-1.06.378-.557.701ZM61.335 57.894c.467.36 1.06-.341.593-.683-.467-.342-1.043.324-.593.683ZM62.455 56.495c.432.287.882-.288.648-.612.144-.216.126-.504-.162-.63-.45-.197-.773.324-.594.63-.125.18-.143.45.108.611ZM63.357 54.445c.54.252.953-.521.45-.791-.522-.27-.972.557-.45.791ZM64.33 52.896c.504.288.99-.45.522-.755-.504-.306-1.044.467-.522.755ZM65.337 51.422c.486.306 1.043-.377.576-.701-.468-.342-1.061.378-.576.701ZM66.53 50.02c.45.342 1.06-.306.611-.665-.431-.36-1.079.323-.611.665ZM44.525 77.534c-.45.396.161 1.133.611.737.45-.395-.162-1.133-.611-.737ZM43.298 76.043c-.45.396.162 1.151.611.755.45-.395-.161-1.15-.611-.755ZM42.077 74.511c-.468.396.126 1.151.576.755.467-.377-.108-1.133-.576-.755ZM40.92 72.986c-.467.377.127 1.15.576.773.468-.396-.108-1.17-.575-.773ZM39.764 71.439c-.45.395.126 1.15.594.773.467-.396-.144-1.169-.594-.773ZM38.477 69.983c-.377.468.234 1.115.666.702.45-.432-.27-1.187-.666-.702ZM36.916 68.867c-.215.557.468.99.81.486.36-.522-.576-1.097-.81-.486ZM35.127 68.276c-.108.63.737.827.917.234.162-.612-.81-.864-.917-.234ZM33.306 67.898c-.108.63.809.828.917.198.108-.63-.81-.827-.917-.198ZM31.423 67.501c-.108.648.81.828.917.198.126-.647-.81-.845-.917-.198ZM29.61 67.087c-.107.647.81.845.918.197.108-.629-.81-.845-.918-.197ZM27.743 66.674c-.108.648.81.845.917.216.108-.647-.809-.863-.917-.216ZM25.9 66.259c-.108.647.809.863.917.215.125-.665-.792-.88-.918-.215ZM24.064 65.826c-.108.665.809.881.917.216.108-.666-.81-.882-.918-.216ZM22.198 65.267c-.198.648.774.971.9.306.143-.648-.702-.935-.9-.306ZM20.534 64.299c-.378.557.558 1.205.81.557.215-.593-.45-1.06-.81-.557ZM80.375 150.391c-.576-.036-.666.881-.072.953.593.054.665-.917.072-.953ZM80.35 148.521c-.557.072-.54.935.054.935.594-.017.558-1.025-.054-.935ZM80.223 147.602c.575-.108.378-1.061-.198-.899-.557.144-.378.989.198.899ZM79.489 144.939c-.558.216-.27 1.043.287.863.576-.18.252-1.061-.287-.863ZM79.192 144.081c.557-.216.216-1.098-.342-.846-.522.216-.198 1.061.342.846ZM78.137 141.559c-.54.252-.162 1.079.378.828.54-.252.162-1.097-.378-.828ZM77.348 139.903c-.54.252-.162 1.079.377.828.558-.252.144-1.062-.377-.828ZM77.004 139.081c.54-.252.198-1.079-.341-.846-.558.234-.198 1.08.341.846ZM76.688 126.039c-.522-.216-.935.648-.396.828.522.179.9-.612.396-.828ZM77.135 125.245c.486.233.972-.504.486-.774-.468-.269-.99.522-.486.774ZM78.18 123.737c.45.27 1.026-.396.594-.701-.431-.342-1.079.395-.593.701ZM80.034 121.703c-.377-.359-1.097.288-.683.63.414.341 1.061-.252.683-.63ZM87.103 112.245c.45.233.99-.396.558-.648-.45-.252-1.007.396-.558.648ZM88.224 110.967c.413.252.989-.36.593-.63-.395-.269-1.007.36-.593.63ZM89.454 109.73c.396.27 1.007-.323.63-.611-.396-.27-1.026.342-.63.611ZM90.73 108.521c.379.269 1.026-.306.648-.576-.377-.288-1.043.306-.647.576ZM92.019 107.372c.377.27 1.025-.288.665-.557-.378-.288-1.043.269-.665.557ZM93.322 106.239c.36.288 1.025-.27.666-.54-.36-.287-1.025.27-.666.54ZM94.671 105.161c.342.288 1.025-.252.684-.521-.342-.288-1.025.233-.684.521ZM96.106 104.099c.341.288 1.025-.234.7-.522-.323-.27-1.042.252-.7.522ZM97.457 103.07c.324.288 1.025-.216.72-.504-.325-.269-1.044.234-.72.504ZM99.657 101.598c-.252-.18-1.025.216-.72.486.306.287 1.026-.216.72-.486ZM101.119 100.701c-.252-.198-1.008.251-.756.449s1.007-.252.756-.449ZM103.037 99.096c-.054-.27-.917.018-.845.288.072.27.881-.018.845-.288ZM101.321 99.688c-.09-.27-.935.036-.827.305.108.27.917-.035.827-.305ZM99.71 100.34c-.125-.27-.97.072-.826.341.144.252.935-.09.827-.341ZM98.077 101.007c-.162-.27-.99.09-.81.359.163.27.954-.09.81-.359ZM96.428 101.746c-.18-.27-1.007.108-.79.378.197.27.97-.108.79-.378ZM94.058 102.933c.234.27.99-.144.774-.414-.216-.269-1.007.144-.774.414ZM92.588 103.797c.27.252.989-.18.755-.431-.252-.27-1.025.162-.755.431ZM91.833 104.243c-.27-.252-1.025.216-.737.468.287.234 1.007-.216.737-.468ZM94.734 100.917c-.18-.288-1.043.09-.845.359.216.288 1.025-.072.845-.359ZM93.059 101.673c-.216-.27-1.061.126-.81.396.234.27 1.026-.126.81-.396Z"/><path fill="#100B42" d="M172.159 67.934c-.054-.018-.108-.036-.144-.036a10.026 10.026 0 0 0-.144-1.025c-1.007-5.09-2.302-10.736-4.604-15.358-.252-.522-.719-1.87-1.385-2.05-1.259-.324-2.464 3.452-3.147 4.567-2.302 3.741-5.143 7.194-5.953 11.6a6.544 6.544 0 0 0 .054 2.716.19.19 0 0 0-.216.09c-1.348 2.482.162 4.874 1.745 6.852 1.097 1.385 1.996 3.183 3.111 4.676.719.953 3.435 2.877 3.471 3.453.306 5.43.36 10.79-.288 16.222-.215 1.636-.521 3.237-.845 4.855-.342 1.601-.755 3.201-1.115 4.802-.539-2.68-1.942-5.143-3.453-7.571-1.475-2.428-3.003-4.802-3.759-7.338-.036-.108-.143-.342-.287-.45-1.097 1.655-.72 4.533-1.025 6.421-.396 2.913-1.062 5.773-.756 8.722.144 1.799.845 3.759 1.835 5.647.953 1.871 2.14 3.669 3.363 5.09-.558 1.367-1.205 2.607-1.835 3.812-.629 1.187-1.241 2.338-1.978 3.417a75.74 75.74 0 0 1-2.248 3.256c-.845 1.061-1.745 2.122-2.68 3.237-2.41 2.625-4.622 5.035-7.032 7.355-2.391 2.302-4.747 4.55-7.247 6.726a60.059 60.059 0 0 1-2.896 2.356c1.871-3.057 3.507-6.24 4.82-9.477 1.493-3.741 2.158-7.086 2.41-10.377.288-4.065-.072-8.075-.324-12.679-.881-15.485-1.564-31.149-1.96-47.029.036-.162.036-.306.018-.45-.845-4.675.881-9.243.036-13.955-.683-3.92-4.676-8.65-6.978-12.032a536.073 536.073 0 0 0-6.456-9.297c-4.568-6.385-8.309-15.719-16.042-14.694 0-.036-.018-.054-.018-.09l-.054.108c-1.097.162-2.266.522-3.525 1.115-3.453 1.69-7.302 4.964-10.035 7.878-4.172 4.406-7.41 10.322-11.24 15.106-2.968 3.723-4.856 8.093-6.493 12.373-1.906 5-1.996 8.507-1.996 13.632a1115.51 1115.51 0 0 1-.485 31.023c-.144 4.55-.306 9.1-.504 13.65.665-1.187 1.367-2.356 2.194-3.435.162-4.334.324-8.668.45-13.002.323-11.402.467-22.804.431-34.188 1.745 1.744 4.01 3.309 5.737 4.927 1.187 1.133 2.356 2.122 3.705 2.914.522 10.179.594 20.43.198 30.663.413-.252.827-.504 1.259-.774.251-.143.521-.287.773-.413-.018-7.356-.324-28.56-.126-28.595a.665.665 0 0 0 .324-.144c.144.09.306.18.503.216 5.234 1.097 10.611 1.564 15.701 3.291 10.323 3.489 11.078 16.132 11.923 24.98.54 5.665.54 11.366.432 17.067-.072 4.154-.072 8.327.072 12.481.09 2.572.971 5.108.809 7.697-.036.486-.072.954-.126 1.421-5.629-.629-11.348-1.403-16.653-3.381-4.946-1.834-8.992-4.946-14.334-5.449a12.246 12.246 0 0 1 .054-1.799c.288-3.147.162-6.312.414-9.459l.27-3.435c-.738.773-1.493 1.528-2.248 2.302-.324 3.956-.72 7.895-1.187 11.815a1.257 1.257 0 0 0-.306.234c-1.547.756-3.669-.018-5.395.234.036.809.144 1.601.341 2.356 1.061-.216 2.23-.18 3.525-.054.81.09 1.457-.018 2.087-.27 1.744 2.77 1.816 6.331 2.643 9.514.773 2.967 2.32 5.683 3.903 8.255 4.01 6.546 10.035 12.067 11.851 19.656.756.162 1.493.288 2.248.36h.036c-1.384-6.726-5.665-11.995-9.73-17.445-3.038-4.064-5.718-8.326-6.78-13.416-.503-2.428-1.168-4.496-1.51-6.69 5.287.611 9.748 3.939 14.675 5.773 4.946 1.834 10.557 2.446 15.826 3.021-.503 2.824-1.366 5.521-2.409 8.255-1.151 3.039-2.446 6.043-3.705 9.046-1.709 4.083-3.651 7.985-6.241 11.456.863.09 1.709.18 2.572.162 2.716-4.047 4.712-8.525 6.6-13.165 2.266-5.539 3.004-14.657 9.208-16.851 2.41-.845 4.982-1.241 7.356-2.194 2.122-.863 4.208-2.176 6.168-3.561-1.672 6.726-5.683 12.715-9.801 18.65-2.374 1.708-4.784 3.417-7.158 5.215-1.529 1.205-3.92 3.399-6.115 5.647-2.194 2.212-4.226 4.443-4.657 5.845.539.504 2.643-.539 5.125-2.194-.917.863-1.888 1.709-2.877 2.428.305 0 .593.054.791.252.234.252.252.971.252 1.349.503-.396 1.007-.81 1.492-1.241 4.047-3.471 7.913-7.194 11.348-11.384.432-.342.846-.684 1.277-1.007a97.798 97.798 0 0 1 2.626-2.158c.414-.36 1.709-1.187 2.913-2.069 1.151-.917 2.23-1.87 2.248-2.356-.089 2.141 1.098 3.274 3.094 3.615 1.007.18 2.158.108 3.471-.09a22.847 22.847 0 0 0 2.032-.431 29.19 29.19 0 0 0 2.122-.702c.719-.269 1.475-.539 2.176-.881.72-.342 1.421-.701 2.122-1.061 1.439-.719 2.716-1.601 3.939-2.374 1.241-.773 2.23-1.601 3.093-2.248.845-.647 1.529-1.115 1.888-1.367.486-.305.324-1.223-.233-.989-1.259.54-2.572.863-3.831 1.115a26.81 26.81 0 0 1-3.705.486c-2.5.108-4.873.036-7.391-.126-1.295-.09-2.41.036-3.417.288a237.7 237.7 0 0 0 6.924-6.601c.575-.575 1.097-1.169 1.672-1.762.576-.594 1.151-1.187 1.673-1.799.557-.629 1.115-1.24 1.672-1.87l1.637-1.96c2.823-3.273 5.053-7.068 6.942-11.078a71.792 71.792 0 0 0 2.482-6.349c3.327-10.107 5.395-20.232 4.46-30.825-.072-.755.359-1.438 1.025-1.78 1.816-.935 3.039-5.288 3.561-6.6.773-2.087 2.499-7.428-.126-8.813ZM110.005 22.13c2.446.287 3.327 2.05 4.568 3.974 1.313 2.032 3.345 3.543 4.766 5.485a363.007 363.007 0 0 1 6.223 8.615c3.219 4.586 7.445 8.848 9.118 14.297.845 2.788.647 5.45.431 8.309-.395 5.377 1.133 8.237-4.28 11.114-1.457.773-3.021 1.313-4.442 2.194-3.111 1.924-7.733-2.086-9.334-5.557-1.043-2.248-1.906-7.482-2.572-10.503-1.726-7.787-3.938-15.107-4.19-23.11-.162-4.91-.486-9.909-.288-14.819ZM88.047 69.983c-.018.108-.018.234-.036.342-3.328-1.636-6.061-5.071-8.74-7.463-2.41-2.122-1.08-4.155.053-6.924 3.201-7.895 8.453-13.74 13.578-20.502 1.26-1.655 2.32-3.435 3.67-5.036 2.445-2.913 6.222-6.798 10.304-7.967-3.273 6.708-9.945 22.534-11.6 25.61-1.6 2.967-4.298 5.719-5.395 9.082-1.367 4.082-1.205 8.65-1.834 12.858Zm23.901 6.96c-5.288-2.32-10.683-4.118-16.258-5.269-1.295-.27-2.59-.468-3.885-.665-1.996-.306-1.636-1.313-1.33-3.31.917-5.988 1.726-10.035 4.765-15.304 1.457-2.554 2.806-5.162 4.209-7.733.45-.81 5.611-13.668 8.254-19.8.486 6.186.162 17.606 3.777 31.328.989 3.794 2.338 7.481 2.913 11.366.648 4.334-.161 5.808-2.266 9.064-.071.108-.125.216-.179.323Zm2.607 5.18c-1.87-3.633 1.115-5.467 2.086-8.309.936.737 1.871 1.51 2.788 2.302 2.248 1.978 4.298 3.147 2.698 6.87-1.115 2.572-2.158 12.104-2.914 14.855-1.636-2.931-3.111-12.715-4.658-15.718Zm13.668 55.337c-2.895.899-5.431 1.223-8.093 2.68.792-.432-.719-16.024-.719-17.84.018-7.266.486-14.298 1.421-21.492.485-3.83.521-7.715 1.367-11.492.359-1.618 1.241-3.02 1.888-4.531.575-1.35.45-3.49 1.007-4.587 1.331-2.625 7.823-4.981 10.647-6.564.341 12.751.845 25.484 1.51 38.235.18 3.327.36 6.654.558 9.963.18 3.003 1.511 6.528.072 9.514-1.637 3.327-6.582 5.197-9.658 6.114Zm13.183 10.899c1.277-.216 2.697-.198 4.442-.018 1.654.18 3.273.18 4.963.054 1.691-.108 3.346-.414 5.018-.864-1.547 1.205-3.669 2.626-5.881 3.903-1.151.611-2.302 1.205-3.453 1.709a41.603 41.603 0 0 1-3.435 1.204c-2.212.594-4.19.756-5.557.378-1.403-.414-2.176-1.349-2.158-3.003v-.036l.594-.54c.323-.287 2.14.522 2.535.648.198.072.36.126.54.198-.342.161-.45.737.036.935.467.18.773-.306.647-.648.702.342 1.223.756 2.032 1.403.252.198.576-.18.36-.414a9.315 9.315 0 0 0-.953-.917c.863.036 1.726 0 2.554-.162a7.514 7.514 0 0 0 2.41-.827c0 .09-.018.162.018.252-.126.072-.144.306.036.36.054.018.107 0 .143-.036.342.611 1.277.054.954-.576l-.18-.324c-.054-.09-.144-.126-.216-.162.27-.305-.036-.737-.45-.557-.719.306-1.42.54-2.104.701-.683.162-1.385.234-2.068.27.288-.198.576-.378.917-.539.27-.126.054-.54-.216-.414-2.284 1.061-3.92.881-6.456.324.414-.378.881-.72 1.277-1.115a11.436 11.436 0 0 1 3.651-1.187Zm19.782-36.922c.09-.018.126-.072.18-.126-.036.414-.09.845-.18 1.277-.179-.09-.395-.072-.539.144l-.198.306c-.252.377.162.737.486.665-.216.773-.45 1.583-.792 2.5l-.377-2.212c.413-.198.287-.827-.162-.881l-.09-.54c-.216-1.241.216-1.924.665-3.093.036-.108.09-.216.072-.324-.036-.324-.539-.414-.791-.198-.252.216-.324.576-.36.899-.359-2.104-.683-4.172-1.061-6.24-.036-.162-.072-.342-.18-.468s-.305-.197-.449-.108c-.144.108-.144.306-.126.486a55.282 55.282 0 0 0 1.061 7.032c-.648-1.115-1.331-2.212-1.996-3.309-.18.953.072 1.96.503 2.823.432.882 1.799 2.051 1.996 2.878.306 1.331.684 2.661 1.008 3.956-.162.414-.324.828-.486 1.223-.144-.216-.27-.413-.414-.611a.395.395 0 0 0-.287-.432c-.252-.36-.504-.719-.738-1.097.054-.288-.09-.557-.413-.611-1.817-2.626-3.184-5.162-3.22-8.669.036-3.183.954-6.276 1.223-9.46-.144 1.907 3.291 5.774 4.209 7.536 1.223 2.41 1.726 4.208 1.672 6.079-.072-.126-.18-.216-.359-.162-.504.108-.342.845.143.737Zm8.669-38.342c-.881 1.492-1.907 2.895-2.95 4.298-1.079 1.457-1.277 1.403-2.338 0-1.294-1.727-2.967-3.22-4.37-4.856-3.075-3.615-2.751-7.283-1.025-11.42 1.691-4.064 4.874-6.726 6.115-10.97 2.554 4.46 3.92 9.226 5.053 14.207.738 3.274 1.385 5.611-.485 8.74Z"/><path fill="#100B42" d="m165.926 75.593-.342-.126c-.665-.251-1.097.63-.486.99l.306.18c.648.395 1.223-.774.522-1.044ZM166.953 74.314c-.612.216-.288 1.169.323.953.63-.216.288-1.169-.323-.953ZM164.597 73.043c-.504.18-.234.971.27.791.521-.18.233-.97-.27-.791ZM163.417 73.597l-.234.108c-.612.27-.306 1.151.342.971l.251-.072c.648-.18.27-1.277-.359-1.007ZM162.323 71.313l-.234.108c-.54.234-.27 1.007.306.863l.252-.072c.575-.18.233-1.15-.324-.9ZM159.589 68.85c-.45.162-.198.845.234.683.449-.162.198-.845-.234-.683ZM160.393 70.343c-.593.215-.27 1.133.324.917.593-.198.269-1.133-.324-.917ZM159.713 67.738c.54-.198.252-1.025-.305-.845-.54.197-.234 1.043.305.845ZM159.798 64.372c0 .251.198.485.504.377.485-.18.215-.917-.27-.755-.054.018-.072.054-.09.09 0-.018.018-.036.018-.054l-.054-.252c-.162-.755-1.223-.377-.863.306l.108.216c.107.27.449.234.647.072ZM162.111 70.52l.072.252c.162.594 1.151.252.9-.323l-.108-.234c-.234-.54-1.007-.27-.864.306ZM167.098 73.92c.576-.197.252-1.078-.306-.88-.575.197-.269 1.078.306.88ZM169.366 73.166c-.126-.431-.845-.18-.665.234l.107.234c.162.395.738.198.63-.216l-.072-.252ZM167.047 71.904l.18-.324c.324-.593-.666-1.06-.935-.45l-.144.343c-.252.593.593.989.899.431ZM169.07 71.762c-.486.162-.216.918.251.738.486-.162.234-.9-.251-.738ZM164.054 70.739c-.54.198-.252 1.043.288.845.557-.198.269-1.043-.288-.845ZM160.307 61.674c.414-.144.18-.791-.234-.647-.431.161-.198.809.234.647Z"/><path fill="#100B42" d="M160.72 67.375c.503-.18.233-.97-.288-.791-.504.18-.234.971.288.791ZM161.651 68.545c-.594.216-.27 1.115.324.918.593-.216.269-1.133-.324-.918ZM158.443 114.549c.593-.126.377-1.043-.216-.899-.576.108-.378 1.025.216.899ZM158.504 115.244c-.125.036-.179.09-.269.162-.162.144-.108.449.108.521a.666.666 0 0 0 .323.036c.63-.018.414-.935-.162-.719ZM156.272 112.013c-.539.126-.342.935.198.809.522-.108.342-.917-.198-.809ZM157.152 113.898h.252c.647 0 .413-1.008-.162-.738l-.234.108c-.306.126-.198.63.144.63ZM156.11 108.774c.09-.468-.611-.846-.827-.36-.144.324-.252.629-.36.953a.465.465 0 0 0 .216.558l.629.377c.072.036.144.018.216.036.018.252.198.504.522.432.485-.108.395-.737-.018-.827.018-.162 0-.342-.198-.45l-.306-.18c.036-.18.09-.359.126-.539ZM155.927 106.672c-.09-.144-.072-.234.018-.36.305-.449-.414-.827-.72-.413-.27.359-.27.809-.054 1.205.27.467 1.043.036.756-.432ZM155.961 103.563c-.414.108-.234.738.18.63.414-.108.234-.738-.18-.63ZM136.846 151.937c-.432 0-.468.467-.198.647.018.18.18.342.36.324h.054c.108-.018.251-.108.269-.216.09-.342-.089-.755-.485-.755ZM138.231 152.818c-.684-.27-1.043.756-.378 1.043.666.27 1.061-.773.378-1.043ZM140.115 153.713c-.468-.18-.737.54-.27.72.468.197.737-.54.27-.72ZM142.829 152.964c-.593-.198-.899.737-.305.935.593.198.917-.755.305-.935ZM148.866 151.005c.288.072.414-.377.126-.449-.288-.072-.414.377-.126.449ZM150.484 149.906c.594.107.81-.846.216-.954-.593-.09-.809.846-.216.954ZM144.911 152.351c-.287-.36-.935-.018-.809.414l.108.341c.234.828 1.457.198.917-.485l-.216-.27ZM52.022 161.432a1.645 1.645 0 0 0-.125-.252l-.09-.144a4.056 4.056 0 0 0-1.943-1.6 4.707 4.707 0 0 0-.72-.198 1.05 1.05 0 0 0-.233-.036 10.524 10.524 0 0 1-.737-.126 1.596 1.596 0 0 0-.414-.018c-.575 0-.953.162-1.385.036-.018 0-.018 0-.018-.018.054-.036.108-.054.144-.072 0 0 .036-.018.072-.018h.036c.378-.054.773-.072 1.17-.144a6.23 6.23 0 0 0 1.204-.305c.108-.036.234-.09.342-.144l.323-.18c.072-.036.144-.072.216-.126.108-.072.216-.126.324-.216l.324-.216c.072-.054.27-.215.323-.269.414-.414.576-.738.918-1.151a2.75 2.75 0 0 0 .341-.54l-.485-.252c-.18.306-.396.576-.63.828-.161.161-.27.323-.467.557a3.054 3.054 0 0 1-.81.648c-.251.125-.467.287-.719.413a5.72 5.72 0 0 1-.917.234c-.036 0-.216 0-.594.126-.162.054-.395.054-.557.036-.126 0-.288.09-.45.144-.036.018-.072.018-.09.036-.144.036-.251.108-.341.144l-.054.018a.64.64 0 0 0-.162.125c-.018.036-.036.054-.054.108-.018.018-.018.054-.018.09-.018.072.036.18.018.162l.018.072c.018.036.018.072.054.108a.393.393 0 0 1 .054.09c.018.018.018.036.054.054.018.018.036.018.054.036l.108.054.09.036c.233.072.45.108.647.108.27 0 .45-.036.755-.036.378-.018.702 0 1.061.09.288.072.54.09.81.143.287.126.557.27.809.432.018.036.162.144.468.342.125.09.27.252.341.395.054.108.252.216.342.324.036.09.072.162.108.252l.485-.18Z"/><path fill="#100B42" d="m60.613 158.571-.018-.09c0-.036-.018-.071-.036-.125-.018-.018-.036-.054-.072-.108l-.036-.036a.136.136 0 0 0-.072-.036l-.035-.018h-.019l-.161-.054c-.108-.036-.216-.054-.324-.072a6.286 6.286 0 0 0-.576-.072c-.251-.036-.45-.018-.773 0-.395.018-.72 0-1.079-.072-.27-.072-.54-.09-.81-.144a3.06 3.06 0 0 1-.772-.468c-.018-.035-.144-.143-.45-.377a.999.999 0 0 1-.306-.414c-.054-.126-.252-.234-.342-.342-.035-.089-.09-.179-.125-.251a4.972 4.972 0 0 1-.342-.989c-.054-.216-.126-.396-.198-.684l-.054-.27c-.018-.09-.018-.179-.036-.269-.018-.18-.036-.36-.054-.558-.018-.306-.108-.575-.162-.863l-.054-.971c.018-.036.018-.234-.054-.63-.036-.162-.018-.395 0-.557.018-.126-.072-.342-.108-.486v-.216c-.017-.072-.035-.161-.107-.269a.731.731 0 0 0-.18-.162c-.054-.036-.18-.126-.396-.054a.435.435 0 0 0-.234.198c-.018.036-.036.072-.054.126V149.292l-.036.143c-.036.198-.09.378-.125.576-.036.252-.018.467-.018.791.017.414.017.738-.037 1.115-.035.288 0 .594.019.863a5.588 5.588 0 0 1-.198.918c-.036.036-.09.197-.162.593-.018.162-.126.378-.198.504-.054.126-.054.323-.09.485-.036.09-.09.162-.144.252l.486.252.126-.234.072-.144c.323-.773.575-1.511.683-2.356.036-.252.018-.485.018-.719v-.234c0-.234 0-.486.036-.719.018-.072.018-.324.018-.396 0-.468-.036-.791.018-1.169 0 .809.054 1.565.126 2.374.018.234.072.468.108.683 0 .072.018.144.036.234.036.234.072.468.09.72 0 .071.036.323.054.413.125.576.287.899.45 1.403.071.198.161.396.25.593.037.072.09.162.127.234l.09.144c.216.342.45.701.773.989.306.288.666.522 1.08.702.233.108.467.161.718.215.072.018.162.036.234.036l.756.108c.09.018.323.018.413.018.558 0 .9-.072 1.403 0 .018 0 .036.018.054.018l-.108.018-.306.036-.593.108c-.396.072-.773.162-1.17.27-.233.072-.43.126-.683.216a.681.681 0 0 0-.233.108 5.177 5.177 0 0 0-.684.395c-.072.054-.27.216-.323.288-.396.414-.576.719-.936 1.097-.144.144-.27.324-.395.486l-.162.215-.09.144c-.432.702-.755 1.457-.881 2.302a3.33 3.33 0 0 0-.036.738v.233l.018.378c0 .126.018.234 0 .36 0 .072 0 .306.018.395.018.54.054.882-.054 1.385l-.036.144v.018c0-.018-.018-.072-.018-.09-.018-.773-.018-1.546-.036-2.356 0-.234-.018-.485-.054-.719a1.06 1.06 0 0 0-.036-.234c-.054-.252-.09-.486-.144-.737-.018-.09-.09-.324-.108-.396-.198-.539-.377-.827-.521-1.331a3.93 3.93 0 0 0-.216-.593l-.486.252c.126.305.216.683.324 1.025.072.233.144.413.27.719.144.36.233.665.27 1.043.017.288.09.54.125.809-.018.324-.018.648-.018.989-.018.036-.036.234.018.648.036.18.018.414 0 .575-.018.072.018.162.036.252.036.072.054.198.108.306.018.162.162.342.306.432l.144-.27-.09.288c.09.035.216.035.324 0a.527.527 0 0 0 .287-.234.414.414 0 0 0 .054-.162l.018-.072.036-.144c.036-.18.072-.378.108-.557.036-.252.036-.468.018-.81-.018-.216-.018-.395-.036-.575-.018-.18-.018-.378-.018-.558 0-.287-.018-.557-.018-.827.054-.306.126-.611.234-.899.036-.036.108-.198.198-.576.054-.162.162-.359.252-.485.072-.108.108-.324.161-.468l.18-.234c.234-.269.468-.539.72-.773.162-.162.288-.324.503-.558.252-.305.468-.485.792-.611.233-.108.467-.198.755-.306l.953-.198c.054 0 .234 0 .612-.143.161-.054.395-.072.557-.072a.62.62 0 0 0 .234-.054c.108-.036.216-.09.288-.144l.072-.018c.017 0 0 0 .09-.036.035-.018.071-.036.09-.072.017-.018.053-.036.071-.09 0-.018.018-.036.018-.054l.018-.036s.018-.054.018-.09v-.216Zm-7.5-9.244v-.035c.019.017.019.017 0 .035ZM75.039 19.824a1.727 1.727 0 1 0-1.727-1.726c.019.953.792 1.726 1.727 1.726ZM76.352 175.01a1.727 1.727 0 1 0 0 3.453 1.727 1.727 0 0 0 0-3.453ZM148.578 80.863a1.727 1.727 0 1 1 0 3.455 1.727 1.727 0 0 1 0-3.455Z"/><path fill="#100B42" d="M150.305 82.59a1.728 1.728 0 0 1-3.453 0c0-.953.773-1.727 1.726-1.727.971 0 1.727.774 1.727 1.727Z"/></svg>